<svg width="198" height="258" viewBox="0 0 198 258" fill="none" xmlns="http://www.w3.org/2000/svg">
<path d="M87.7799 107.074C79.5513 100.982 76.1371 91.4142 79.712 85.0826C79.9045 84.7336 80.1235 84.3865 80.3671 84.0604C84.9514 77.7764 95.7102 77.889 104.396 84.3121C113.079 90.7429 116.402 101.045 111.811 107.327C110.599 108.988 108.958 110.197 107.037 110.966C101.687 113.113 94.17 111.799 87.7799 107.074M142.118 32.656C95.8958 -1.54818 38.6321 -2.15655 14.2094 31.2924C11.8526 34.5173 9.88955 37.9425 8.31221 41.524C-6.53659 75.1179 11.9208 122.872 53.6833 153.771C68.5933 164.798 84.6501 172.335 100.382 176.359C108.159 178.348 115.862 179.48 123.301 179.754C147.477 180.64 168.938 172.458 181.585 155.133C183.309 152.774 184.823 150.311 186.128 147.753C203.374 114.056 185.071 64.4361 142.118 32.656" fill="#F5AF41"/>
<path d="M129.292 175.846C128.125 175.846 126.949 175.825 125.767 175.781C124.769 175.745 123.769 175.693 122.761 175.625C122.716 172.705 122.732 169.791 122.985 167.31C125.415 167.574 127.824 167.749 130.208 167.837C131.389 167.88 132.564 167.901 133.733 167.901C152.536 167.901 169.474 162.281 181.574 151.01C180.982 151.935 180.361 152.848 179.708 153.743C175.248 159.851 169.634 164.778 163.16 168.524C153.245 173.408 141.674 175.846 129.292 175.846M95.4329 170.236C82.1111 165.914 68.7222 159.097 56.1493 149.798C23.9479 125.973 5.60193 92.1288 5.69665 62.4786C6.14159 55.3426 7.73666 48.5168 10.5581 42.2209C10.7908 42.2794 11.0307 42.3219 11.2763 42.3468C7.58277 61.7785 12.9583 84.1526 25.8972 104.813C23.9646 111.148 24.8772 116.703 28.683 120.46C31.2243 122.97 34.6652 124.23 38.3685 124.23C39.133 124.23 39.9095 124.177 40.6908 124.069C46.5594 130.411 53.2085 136.394 60.5885 141.854C61.7278 142.697 62.8751 143.52 64.0284 144.323C64.2138 147.923 64.9923 151.124 67.2918 153.505C69.7354 156.033 73.5944 157.262 79.0738 157.262C79.3397 157.262 79.6108 157.259 79.882 157.253C81.3839 157.221 82.7837 156.768 83.9845 155.945C88.647 158.165 93.3429 160.078 98.0353 161.679C97.2271 163.944 96.2675 166.909 95.4329 170.236" fill="#CC8145"/>
<path d="M118.254 106.863C117.196 106.737 116.127 106.565 115.052 106.348C118.244 99.0426 114.493 88.8727 105.776 82.4226C100.981 78.8768 95.5695 77.1083 90.6761 77.1083C86.9096 77.1083 83.4488 78.1565 80.8149 80.2457C80.0237 78.6669 79.3538 77.0723 78.8096 75.4763C82.029 72.5446 86.4554 71.0693 91.2889 71.0693C96.8965 71.0693 103.058 73.055 108.533 77.0551C119.475 85.0524 123.666 98.1684 118.254 106.863Z" fill="#CC8145"/>
<path d="M110.441 105.149C105.441 103.558 100.392 101.007 95.6561 97.503C90.526 93.7069 86.2984 89.1808 83.1846 84.3746C85.025 82.6111 87.6617 81.7383 90.6337 81.7383C94.5313 81.7383 99.0057 83.241 103.015 86.2068C110.276 91.5811 113.439 99.8525 110.441 105.149" fill="#BA73C9"/>
<path d="M111.812 107.329H111.816H111.812ZM90.6334 81.7389C87.1083 81.7389 84.0568 82.965 82.2436 85.4496C80.4807 87.8636 80.1513 91.1796 81.3134 94.7873C82.5653 98.6696 85.3524 102.361 89.1616 105.18C96.7953 110.829 106.113 111.167 109.932 105.937C113.752 100.706 110.648 91.8565 103.014 86.2066C99.0058 83.2415 94.5298 81.7389 90.6334 81.7389M101.499 114.279C96.6039 114.279 91.1922 112.511 86.398 108.965C81.8076 105.567 78.4259 101.047 76.876 96.2365C75.2375 91.151 75.8077 86.3324 78.484 82.6694C83.8261 75.351 96.0698 75.2423 105.778 82.4235C115.483 89.6046 119.035 101.4 113.692 108.719C110.987 112.422 106.516 114.279 101.499 114.279M68.9594 8.94763C46.0292 8.94763 27.2826 17.3548 16.0917 32.6819C-7.52765 65.0313 9.95565 118.502 55.0645 151.879C100.175 185.255 156.089 186.091 179.708 153.743C203.327 121.393 185.844 67.922 140.735 34.5449C118.772 18.293 93.6376 9.20506 69.9647 8.95336C69.6292 8.94955 69.2928 8.94763 68.9594 8.94763ZM126.843 182.172C126.491 182.172 126.14 182.171 125.786 182.167C101.142 181.904 75.0461 172.492 52.3022 155.663C29.5574 138.834 12.8432 116.571 5.23927 92.9739C-2.45459 69.1023 0.0650692 46.7009 12.3321 29.8999C24.5993 13.0988 45.0713 3.97462 70.0139 4.25683C94.6567 4.51997 120.753 13.9321 143.497 30.7598C166.242 47.5876 182.955 69.8517 190.56 93.4506C198.254 117.322 195.735 139.722 183.468 156.523C171.374 173.087 151.293 182.172 126.843 182.172Z" fill="#6D184E"/>
<path d="M143.64 99.921C134.214 112.828 112.113 112.593 94.2741 99.3938C79.2901 88.3069 72.0847 71.6025 75.7456 58.8888C76.003 58.2021 80.8971 45.5598 90.1997 56.2227C99.7613 67.182 101.569 69.0864 113.231 65.5946C124.893 62.1048 117.8 83.6219 129.575 85.47C141.351 87.3181 147.513 89.0199 143.64 99.921M143.135 30.2813C120.851 13.7945 96.069 4.9254 73.454 3.7077L73.4658 3.69832C42.684 -0.39383 24.3922 10.5129 15.5728 21.4216C7.66511 31.1988 7.37211 40.9798 12.5186 39.9498C14.3338 39.5858 15.8904 39.507 17.2332 39.6214C17.0969 40.2669 16.9599 40.9104 16.8405 41.5802C11.3801 72.2779 44.2297 78.1019 31.7792 97.7952C19.3285 117.487 35.1874 127.284 47.8669 118.808L47.9557 118.749C53.6035 115.036 61.3071 117.288 64.1946 123.426C65.624 126.464 66.7565 130.119 66.6273 133.938C66.2348 145.598 64.0841 155.249 79.8326 154.905C84.4777 154.805 86.5317 149.202 85.3276 144.653C82.6064 134.362 95.9404 131.914 101.118 138.787C102.352 140.424 103.247 142.148 103.59 143.786C104.128 148.713 103.388 154.38 101.265 159.726C96.0802 172.787 88.9715 201.103 109.921 203.399C120.584 204.566 120.804 192.671 120.541 180.776C120.29 169.3 119.587 157.825 127.383 158.079C143.258 158.596 144.928 166.544 159.701 155.649C174.472 144.754 182.246 137.463 188.534 140.779C194.823 144.096 194.892 119.011 194.892 119.011C194.637 88.7985 175.862 54.4965 143.135 30.2813Z" fill="#FF33BB"/>
<path d="M53.3146 65.8317C52.516 65.8317 51.7394 65.5811 51.0781 65.1051C50.2404 64.5014 49.6871 63.6046 49.5183 62.5817L47.9499 53.0395C47.6015 50.9274 49.026 48.9241 51.1244 48.5742C51.3371 48.5395 51.55 48.5222 51.7614 48.5222C52.5615 48.5222 53.3365 48.7712 53.9988 49.2488C54.838 49.8525 55.3907 50.7477 55.5583 51.7707L57.1287 61.3144C57.2962 62.3373 57.0598 63.365 56.4601 64.2083C55.8589 65.0515 54.9696 65.6095 53.9534 65.7781C53.7404 65.8144 53.5259 65.8317 53.3146 65.8317" fill="#D32B9A"/>
<path d="M94.9966 44.4152C93.9977 44.4152 93.0558 44.035 92.3323 43.337L85.3902 36.6495C83.8541 35.169 83.8004 32.7066 85.271 31.1602C85.9846 30.4116 86.9432 29.9857 87.9723 29.9637C88.0059 29.962 88.0395 29.962 88.0714 29.962C89.0686 29.962 90.0037 30.3456 90.7239 31.0402L97.666 37.7277C99.2021 39.2082 99.2558 41.6706 97.7852 43.217C97.0716 43.9657 96.113 44.3916 95.0822 44.4135C95.0537 44.4152 95.0251 44.4152 94.9966 44.4152" fill="#D32B9A"/>
<path d="M141.565 78.6012C140.125 78.3159 138.559 78.0566 136.878 77.7927C132.755 77.146 130.944 74.0845 129.832 70.5303C129.987 69.2673 130.753 68.1034 131.973 67.5055C132.514 67.2416 133.088 67.1165 133.654 67.1165C135.084 67.1165 136.461 67.9188 137.128 69.2978L141.332 77.9971C141.427 78.1939 141.504 78.3968 141.565 78.6012" fill="#D32B9A"/>
<path d="M72.3685 116.522C72.2503 116.522 72.1309 116.517 72.0127 116.507C71.9523 116.501 71.8932 116.493 71.8329 116.486C71.7235 116.236 71.6128 115.991 71.4984 115.749C70.7805 114.221 69.7633 112.934 68.5537 111.92L69.3886 102.656C69.5696 100.64 71.2557 99.1249 73.231 99.1249C73.3455 99.1249 73.4611 99.13 73.5768 99.1401C74.6028 99.2338 75.5307 99.7236 76.1908 100.52C76.8509 101.317 77.1627 102.325 77.0697 103.358L76.2021 112.99C76.1091 114.023 75.6212 114.958 74.8304 115.622C74.1313 116.208 73.2675 116.522 72.3685 116.522Z" fill="#D32B9A"/>
<path d="M45.7015 97.5543C44.4178 97.5543 43.1624 96.9108 42.4303 95.7391C41.2987 93.9267 41.8423 91.5251 43.6441 90.3859L51.7782 85.2385C52.4147 84.8349 53.1238 84.6439 53.8249 84.6439C55.1086 84.6439 56.3654 85.2873 57.0974 86.459C58.229 88.2714 57.684 90.6731 55.8836 91.8123L47.7481 96.9596C47.113 97.3619 46.4026 97.5543 45.7015 97.5543Z" fill="#D32B9A"/>
<path d="M118.282 149.919C116.999 149.919 115.743 149.277 115.011 148.104C113.88 146.292 114.424 143.891 116.224 142.751L124.359 137.603C124.995 137.201 125.704 137.009 126.405 137.009C127.689 137.009 128.944 137.652 129.676 138.825C130.808 140.637 130.265 143.039 128.464 144.178L120.328 149.325C119.693 149.728 118.983 149.919 118.282 149.919Z" fill="#D32B9A"/>
<path d="M146.042 127.212C145.519 127.212 144.999 127.103 144.505 126.887C143.56 126.474 142.831 125.714 142.454 124.75L138.932 115.75C138.555 114.786 138.574 113.729 138.984 112.779C139.396 111.828 140.15 111.095 141.109 110.714C141.567 110.533 142.045 110.443 142.523 110.443C143.044 110.443 143.566 110.55 144.06 110.766C145.003 111.181 145.732 111.939 146.11 112.904L149.631 121.905C150.009 122.869 149.991 123.925 149.579 124.874C149.169 125.827 148.415 126.559 147.456 126.939C146.998 127.121 146.519 127.212 146.042 127.212Z" fill="#D32B9A"/>
<path d="M127.539 52.2732C127.179 52.2732 126.817 52.2214 126.462 52.1179L117.231 49.4349C115.187 48.8397 114.006 46.6839 114.596 44.6267C115.084 42.9286 116.63 41.8223 118.306 41.8223C118.657 41.8223 119.016 41.8709 119.371 41.9744L128.604 44.6591C130.646 45.2542 131.828 47.41 131.239 49.4656C130.953 50.4635 130.299 51.2867 129.396 51.788C128.817 52.1098 128.181 52.2732 127.539 52.2732" fill="#D32B9A"/>
<path d="M162.281 99.6241C161.927 99.6241 161.568 99.5754 161.213 99.4712L151.981 96.7868C150.992 96.4978 150.172 95.8393 149.673 94.9322C149.54 94.6853 149.433 94.4299 149.354 94.1679C149.917 93.5631 150.448 92.9214 150.943 92.2427C151.309 91.2146 151.586 90.2672 151.776 89.3953C152.181 89.2509 152.614 89.1736 153.054 89.1736C153.406 89.1736 153.767 89.2223 154.122 89.3265L163.352 92.0109C165.396 92.6056 166.578 94.7609 165.987 96.8187C165.5 98.517 163.954 99.6241 162.281 99.6241Z" fill="#D32B9A"/>
<path d="M170.598 140.98C170.546 140.98 170.495 140.979 170.442 140.977C169.415 140.936 168.463 140.494 167.763 139.733C167.063 138.972 166.7 137.982 166.74 136.946C166.781 135.909 167.22 134.951 167.974 134.247L175.03 127.679C175.751 127.01 176.674 126.648 177.651 126.648C177.7 126.648 177.75 126.648 177.799 126.651C178.829 126.69 179.781 127.132 180.48 127.894C181.924 129.465 181.829 131.927 180.267 133.38L173.212 139.948C172.494 140.616 171.571 140.98 170.598 140.98" fill="#D32B9A"/>
<path d="M152.402 75.6349C151.575 75.6349 150.773 75.3685 150.099 74.8608C149.273 74.2374 148.74 73.3293 148.594 72.3038C148.293 70.1842 149.759 68.2137 151.865 67.9104L161.376 66.5381C161.562 66.5113 161.747 66.4978 161.93 66.4978C162.759 66.4978 163.561 66.7659 164.235 67.2753C165.059 67.897 165.595 68.8052 165.74 69.8306C165.886 70.8578 165.627 71.8799 165.009 72.7093C164.392 73.5387 163.49 74.0783 162.471 74.224L152.958 75.5964C152.773 75.6232 152.587 75.6349 152.402 75.6349" fill="#D32B9A"/>
<path d="M89.8787 128.394C89.8573 128.394 89.8358 128.394 89.813 128.394C88.7826 128.376 87.8217 127.956 87.1048 127.21C85.6268 125.672 85.6673 123.209 87.1971 121.721L94.1029 114.996C94.8513 114.269 95.8186 113.907 96.7845 113.907C97.7934 113.907 98.8024 114.302 99.5559 115.089C100.273 115.833 100.658 116.816 100.641 117.852C100.624 118.889 100.207 119.858 99.4662 120.578L92.5591 127.302C91.8347 128.007 90.8839 128.394 89.8787 128.394Z" fill="#D32B9A"/>
<path d="M63.1403 38.848C61.923 38.848 60.7245 38.2696 59.9757 37.1925L54.464 29.2697C53.2438 27.5171 53.6689 25.0909 55.411 23.8631C56.082 23.3886 56.8533 23.1618 57.617 23.1618C58.8342 23.1618 60.033 23.7384 60.7816 24.8156L66.2933 32.7384C67.5143 34.4927 67.0877 36.9188 65.3462 38.1467C64.6745 38.6194 63.9039 38.848 63.1403 38.848" fill="#D32B9A"/>
<path d="M47.7922 16.1218C47.66 17.4541 47.0503 18.6746 46.2364 19.7338C39.636 28.323 47.8524 47.8122 37.0196 48.7578C26.0942 49.7089 26.8499 24.9438 34.074 16.897C43.1961 6.73183 48.3998 9.99562 47.7922 16.1218Z" fill="#FF5CC9"/>
<path d="M169.899 99.1593C169.899 99.1593 170.545 113.209 155.848 120.925C141.15 128.64 169.33 133.474 177.571 118.322C185.809 103.17 171.651 90.5654 169.899 99.1593Z" fill="#FF5CC9"/>
<path d="M192.432 123.587C190.055 93.122 170.58 59.6008 138.037 35.5168C135.102 33.3468 132.13 31.3057 129.118 29.3825C127.978 28.6549 126.834 27.9494 125.687 27.2567C123.255 29.1909 119.836 30.2391 116.125 30.2391C113.543 30.2391 110.819 29.7307 108.185 28.6641C101.016 25.7517 96.9349 19.6634 98.0969 14.266C97.3851 14.021 96.6751 13.7797 95.9651 13.5476C85.3094 10.0439 74.6918 8.01567 64.4873 7.46855L64.5003 7.46118C59.7217 6.82749 55.2301 6.53459 51.0128 6.53459C49.0823 6.53459 47.2088 6.59538 45.3926 6.71328C50.0174 5.7259 55.1216 5.17141 60.7151 5.17141C64.5516 5.17141 68.6219 5.43299 72.922 5.993C73.0541 6.02616 73.1903 6.04458 73.3294 6.05195C96.364 7.29354 120.664 16.5687 141.752 32.1733C172.831 55.1686 192.3 88.4504 192.56 119.004C192.556 120.54 192.51 122.081 192.432 123.587" fill="#FF99DD"/>
<path d="M143.641 99.9196H143.644H143.641ZM77.9608 59.6338C74.5445 71.6998 81.8085 87.2562 95.6552 97.5019C112.299 109.816 132.793 110.366 141.558 98.8019C142.622 95.6947 142.749 93.525 141.95 92.1724C140.517 89.7416 135.335 88.7497 129.217 87.7897C121.891 86.6419 120.314 79.5635 119.163 74.3955C118.525 71.527 117.862 68.5588 116.574 67.798C116.013 67.4674 115.111 67.4824 113.897 67.8469C100.684 71.8012 98.0923 68.8275 88.4482 57.7721C86.9105 56.01 84.6506 53.983 82.6334 54.3588C80.2979 54.789 78.5014 58.2361 77.9608 59.6338M122.477 111.753C112.943 111.753 102.323 108.264 92.8933 101.287C77.4655 89.873 69.4936 72.1695 73.5058 58.2361C73.5226 58.1779 73.5412 58.1215 73.5629 58.0633C74.0188 56.8422 76.5571 50.7031 81.7936 49.7394C85.1433 49.1232 88.5602 50.7838 91.9528 54.6744C101.248 65.3277 102.218 66.4398 112.568 63.3439C115.07 62.5944 117.213 62.7315 118.935 63.7478C121.971 65.5419 122.858 69.5188 123.716 73.368C124.981 79.0469 126.032 82.5372 129.934 83.1497C137.753 84.3764 143.478 85.5692 145.96 89.7716C147.563 92.488 147.524 95.9634 145.837 100.71C145.761 100.925 145.654 101.128 145.52 101.312C140.438 108.272 131.998 111.753 122.477 111.753M93.0389 132.566C96.6386 132.566 100.47 134.039 102.978 137.368C104.495 139.384 105.469 141.379 105.872 143.3C105.889 143.376 105.9 143.452 105.908 143.529C106.507 149.006 105.628 155.067 103.433 160.598C99.059 171.615 95.6608 187.349 100.488 195.435C102.452 198.723 105.62 200.564 110.174 201.064C112.335 201.299 113.943 200.9 115.089 199.839C118.592 196.6 118.368 187.278 118.168 179.052C117.955 170.178 117.754 161.795 121.675 157.883C123.179 156.379 125.125 155.654 127.46 155.732C133.045 155.913 137.003 156.984 140.183 157.844C146.126 159.451 149.4 160.336 158.322 153.755C160.529 152.128 162.548 150.604 164.498 149.131C175.981 140.467 182.926 135.226 189.555 138.666C191.121 137.145 192.533 128.013 192.561 119.004C192.3 88.451 172.832 55.1684 141.752 32.1729C120.665 16.5695 96.3643 7.29317 73.3302 6.05144C73.191 6.04393 73.0549 6.02515 72.9226 5.99321C38.7897 1.53913 19.3497 15.9947 13.0685 29.7571C10.8243 34.6752 11.3827 37.3634 11.7398 37.6846C11.7348 37.6752 11.8513 37.6884 12.0644 37.6452C13.9712 37.2638 15.7765 37.1417 17.4289 37.2807C18.0959 37.3371 18.7074 37.679 19.1069 38.22C19.5055 38.761 19.6545 39.4486 19.5154 40.108L19.5016 40.1756C19.3753 40.773 19.248 41.3722 19.1375 41.9959C16.5539 56.5172 23.1714 65.1042 29.0095 72.6804C35.0588 80.5291 40.7726 87.9438 33.7476 99.0555C28.9147 106.697 28.2429 113.447 31.9502 117.108C35.2827 120.398 41.4334 120.29 46.5772 116.853L46.6836 116.782C49.9155 114.657 53.9275 114.05 57.6891 115.117C61.4872 116.196 64.6271 118.859 66.3033 122.421C68.1905 126.432 69.0832 130.334 68.9599 134.017C68.9214 135.153 68.8662 136.27 68.813 137.362C68.5387 142.969 68.301 147.811 70.637 150.229C72.2469 151.894 75.24 152.655 79.7828 152.558C80.7585 152.537 81.5398 152.114 82.1724 151.267C83.2735 149.793 83.6355 147.378 83.0756 145.258C81.7451 140.231 83.5534 135.812 87.7951 133.727C89.329 132.971 91.1522 132.566 93.0389 132.566M111.318 205.826C110.784 205.826 110.235 205.795 109.67 205.732C103.65 205.073 99.2157 202.422 96.4893 197.854C89.3159 185.836 96.6741 164.965 99.1 158.855C101 154.069 101.774 148.859 101.285 144.164C101.011 142.969 100.311 141.602 99.2605 140.206C96.995 137.198 92.5612 136.608 89.8422 137.946C87.5991 139.049 86.8191 141.159 87.5823 144.049C88.5079 147.542 87.8473 151.483 85.9028 154.089C84.4174 156.077 82.2788 157.2 79.8834 157.253C73.9723 157.378 69.8547 156.155 67.2927 153.504C63.541 149.621 63.8379 143.553 64.1537 137.13C64.2059 136.063 64.2593 134.969 64.2968 133.858C64.3954 130.929 63.6515 127.758 62.087 124.431C60.988 122.095 58.9233 120.348 56.4225 119.638C53.9591 118.939 51.3381 119.33 49.2318 120.716L49.1687 120.757C42.0776 125.497 33.6579 125.372 28.6839 120.46C23.2869 115.132 23.7081 106.187 29.8116 96.5344C35.0735 88.2105 31.1946 83.1778 25.323 75.5584C19.3131 67.7604 11.8591 58.0877 14.4013 42.0222C13.9387 42.0786 13.4623 42.1537 12.9739 42.2533C10.8775 42.6722 9.02389 41.9753 7.88742 40.3409C5.65106 37.1248 6.7293 30.8617 10.6349 24.3862C13.266 20.0261 19.5095 11.875 31.7748 6.26935C43.5664 0.881621 57.696 -0.767738 73.7711 1.37007C73.7859 1.37195 73.8017 1.3738 73.8156 1.37568C97.6762 2.7151 122.776 12.3033 144.516 28.3895C176.757 52.2435 196.952 86.9594 197.226 118.991C197.225 119.218 197.206 124.003 196.657 129.19C195.586 139.304 193.505 141.782 191.813 142.81C190.477 143.621 188.93 143.638 187.454 142.859C183.413 140.727 177.347 145.306 167.298 152.889C165.336 154.369 163.308 155.9 161.078 157.543C150.353 165.456 145.58 164.166 138.974 162.38C135.872 161.541 132.354 160.59 127.308 160.426C125.955 160.383 125.319 160.857 124.959 161.216C122.468 163.705 122.662 171.799 122.833 178.939C123.065 188.613 123.306 198.617 118.246 203.297C116.431 204.978 114.104 205.826 111.318 205.826" fill="#6D184E"/>
<path d="M133.584 86.1489C133.515 86.1371 133.444 86.1238 133.374 86.1105C133.444 86.1238 133.515 86.1371 133.584 86.1489Z" fill="#6D184E"/>
<path d="M132.632 85.9769C132.524 85.9563 132.411 85.9372 132.302 85.9196C132.411 85.9372 132.524 85.9563 132.632 85.9769Z" fill="#6D184E"/>
<path d="M130.629 85.6387C130.281 85.5833 129.931 85.5264 129.573 85.471C129.931 85.5264 130.281 85.5833 130.629 85.6387Z" fill="#6D184E"/>
<path d="M88.0955 54.1363C87.9898 54.0468 87.8855 53.9604 87.7812 53.8786C87.8855 53.9604 87.9898 54.0468 88.0955 54.1363Z" fill="#6D184E"/>
<path d="M90.1631 56.1819C89.9162 55.8996 89.6724 55.6388 89.4316 55.3888C89.6724 55.6388 89.9162 55.8996 90.1631 56.1819Z" fill="#6D184E"/>
<path d="M144.761 95.1113C144.761 95.0866 144.764 95.0634 144.765 95.0387C144.764 95.0634 144.761 95.0866 144.761 95.1113Z" fill="#6D184E"/>
<path d="M144.767 93.7502C144.766 93.733 144.763 93.7157 144.763 93.6985C144.763 93.7157 144.766 93.733 144.767 93.7502Z" fill="#6D184E"/>
<path d="M140.488 88.1063C140.452 88.0896 140.417 88.0729 140.381 88.0561C140.417 88.0729 140.452 88.0896 140.488 88.1063Z" fill="#6D184E"/>
<path d="M137.81 87.1254C137.729 87.1028 137.65 87.0788 137.569 87.0563C137.65 87.0788 137.729 87.1028 137.81 87.1254Z" fill="#6D184E"/>
<path d="M139.233 87.5904C139.173 87.5692 139.113 87.5466 139.052 87.5254C139.113 87.5466 139.173 87.5692 139.233 87.5904Z" fill="#6D184E"/>
<path d="M134.503 86.3304C134.377 86.3038 134.247 86.2786 134.119 86.2534C134.247 86.2786 134.377 86.3038 134.503 86.3304Z" fill="#6D184E"/>
<path d="M87.3341 53.5377C87.2235 53.4588 87.1144 53.383 87.0068 53.3103C87.1144 53.383 87.2235 53.4588 87.3341 53.5377Z" fill="#6D184E"/>
<path d="M144.559 96.6182C144.562 96.5981 144.566 96.5765 144.571 96.5549C144.566 96.5765 144.562 96.5981 144.559 96.6182Z" fill="#6D184E"/>
<path d="M89.2724 55.2268C89.0308 54.9805 88.7907 54.7481 88.5537 54.5341C88.7907 54.7481 89.0308 54.9805 89.2724 55.2268Z" fill="#6D184E"/>
<path d="M84.3949 52.1205C84.3285 52.1049 84.2637 52.0909 84.1973 52.0785C84.2637 52.0909 84.3285 52.1049 84.3949 52.1205Z" fill="#6D184E"/>
<path d="M82.8525 51.9763C82.8958 51.9748 82.9375 51.9732 82.9808 51.9716C82.9375 51.9732 82.8958 51.9748 82.8525 51.9763ZM83.2897 51.9732C83.2295 51.9717 83.1708 51.9701 83.1121 51.9701C83.1136 51.9701 83.1152 51.9701 83.1167 51.9701C83.143 51.9701 83.1692 51.9716 83.1955 51.9716C83.2279 51.9716 83.2573 51.9717 83.2897 51.9732ZM83.1074 51.9701C83.109 51.9701 83.1105 51.9701 83.1121 51.9701C83.1105 51.9701 83.109 51.9701 83.1074 51.9701Z" fill="#6D184E"/>
<path d="M144.387 97.4251C144.39 97.4095 144.395 97.3938 144.398 97.3781C144.395 97.3938 144.39 97.4095 144.387 97.4251Z" fill="#6D184E"/>
<path d="M86.5083 52.9949C86.4036 52.9313 86.3004 52.8724 86.1973 52.8166C86.3004 52.8724 86.4036 52.9313 86.5083 52.9949Z" fill="#6D184E"/>
<path d="M85.8044 52.6224C85.7212 52.5836 85.6379 52.5463 85.5547 52.5091C85.6379 52.5463 85.7212 52.5836 85.8044 52.6224Z" fill="#6D184E"/>
<path d="M84.9507 52.2742C84.9059 52.2603 84.8612 52.2463 84.8164 52.2323C84.8612 52.2463 84.9059 52.2603 84.9507 52.2742Z" fill="#6D184E"/>
<path d="M144.684 95.8472C144.687 95.8225 144.69 95.7993 144.693 95.7761C144.69 95.7993 144.687 95.8225 144.684 95.8472Z" fill="#6D184E"/>
<path d="M79.0207 152.566C74.9041 152.566 72.155 151.8 70.6356 150.229C68.3005 147.811 68.5385 142.969 68.8127 137.362C68.8662 136.271 68.9213 135.154 68.9593 134.017C69.0817 130.334 68.1901 126.432 66.3025 122.422C64.6265 118.86 61.4865 116.196 57.6884 115.118C56.4701 114.773 55.2272 114.603 53.991 114.603C51.4113 114.603 48.8682 115.344 46.6831 116.781L46.5765 116.853C43.9347 118.618 41.0284 119.505 38.3737 119.505C35.8592 119.505 33.5704 118.709 31.9496 117.108C28.2424 113.448 28.9141 106.698 33.747 99.0556C40.7719 87.9445 35.0581 80.5295 29.009 72.6805C23.1708 65.1041 16.5534 56.5173 19.1369 41.9964C19.2474 41.3731 19.3747 40.7742 19.501 40.1752L19.5148 40.1092C19.6539 39.4495 19.5049 38.762 19.1064 38.2221C18.7069 37.6804 18.0952 37.3366 17.4283 37.2811C16.9884 37.2446 16.5386 37.2255 16.0778 37.2255C14.8083 37.2255 13.4636 37.3662 12.0637 37.6457C11.8507 37.6891 11.7343 37.6752 11.7391 37.6856C11.3821 37.3644 10.8237 34.6752 13.068 29.7585C14.1857 27.3088 15.7216 24.8348 17.6829 22.4512C15.4741 28.0883 16.1409 32.347 19.1084 32.3453C19.3333 32.3453 19.571 32.3227 19.8226 32.2724C21.1356 32.0085 22.3135 31.8956 23.372 31.8956C23.7775 31.8956 24.1661 31.9113 24.537 31.9425C24.401 32.5884 24.2649 33.2325 24.1455 33.9043C18.6842 64.6006 51.5337 70.4253 39.083 90.1181C29.6916 104.971 36.4057 114.195 45.7133 114.193C48.7459 114.193 52.0556 113.214 55.1718 111.13C55.2004 111.111 55.2301 111.09 55.2598 111.073C57.1251 109.846 59.2145 109.269 61.2802 109.269C63.9132 109.269 66.5088 110.205 68.554 111.92L68.5195 112.288C68.4281 113.321 68.7385 114.33 69.3991 115.127C70.0199 115.875 70.8788 116.354 71.8342 116.486C73.1001 119.37 74.0504 122.747 73.9314 126.259C73.5744 136.879 71.7601 145.83 83.3323 147.085C83.3737 148.659 82.9632 150.208 82.1716 151.267C81.5387 152.114 80.7574 152.537 79.7813 152.558C79.5243 152.563 79.2708 152.566 79.0207 152.566" fill="#D32B9A"/>
<path d="M71.8341 116.485C70.8788 116.355 70.019 115.875 69.3987 115.126C68.7394 114.329 68.4269 113.321 68.52 112.288L68.5531 111.919C69.7631 112.934 70.7797 114.22 71.498 115.748C71.6124 115.99 71.7244 116.236 71.8341 116.485Z" fill="#B42583"/>
<path d="M79.0329 154.914C64.1578 154.914 66.2413 145.397 66.6272 133.938C66.7563 130.119 65.6228 126.463 64.1944 123.426C62.2598 119.315 58.1668 116.947 53.9761 116.947C51.9103 116.947 49.82 117.522 47.9556 118.749C47.9259 118.769 47.8964 118.788 47.8666 118.808C44.7504 120.891 41.4427 121.87 38.4092 121.87C29.1015 121.87 22.3882 112.646 31.7789 97.7949C44.2295 78.1012 11.3789 72.2779 16.8403 41.5802C16.9596 40.9108 17.0967 40.2663 17.2329 39.6201C16.8609 39.5898 16.4733 39.572 16.0678 39.572C15.0083 39.572 13.8304 39.6859 12.5184 39.9476C12.2667 39.9993 12.0281 40.0242 11.8032 40.0242C6.43363 40.0242 8.59599 26.0666 21.7224 15.2495C19.8964 17.7473 18.5617 20.2077 17.6828 22.4508C15.7215 24.8347 14.1855 27.3075 13.0678 29.7572C10.8236 34.6744 11.3819 37.3626 11.739 37.6849C11.734 37.676 11.8506 37.6884 12.0635 37.6457C13.4635 37.3662 14.8081 37.2238 16.0777 37.2238C16.5384 37.2238 16.9883 37.2433 17.4281 37.2807C18.095 37.3359 18.7067 37.6795 19.1062 38.2207C19.5047 38.7619 19.6538 39.4491 19.5146 40.1078L19.5008 40.1755C19.3745 40.7737 19.2474 41.3719 19.1368 41.995C16.5532 56.5169 23.1706 65.1051 29.0087 72.6802C35.058 80.5296 40.7717 87.9445 33.7469 99.0554C28.914 106.698 28.2422 113.447 31.9495 117.108C33.5704 118.708 35.859 119.504 38.3736 119.504C41.0283 119.504 43.9345 118.617 46.5763 116.853L46.683 116.782C48.868 115.343 51.4113 114.603 53.991 114.603C55.227 114.603 56.4701 114.772 57.6884 115.117C61.4865 116.196 64.6265 118.859 66.3025 122.42C68.1897 126.431 69.0824 130.334 68.9591 134.017C68.9208 135.153 68.8654 136.27 68.8122 137.362C68.5379 142.969 68.3002 147.811 70.6362 150.229C72.1552 151.8 74.9035 152.566 79.0223 152.566C79.2699 152.566 79.5228 152.563 79.7828 152.558C80.7572 152.537 81.5389 152.114 82.172 151.267C82.9643 150.207 83.3729 148.659 83.3322 147.085C84.0555 147.163 84.8319 147.212 85.6631 147.229C85.6861 151.077 83.624 154.823 79.8323 154.905C79.5599 154.911 79.2947 154.914 79.0329 154.914" fill="#6D184E"/>
<path d="M146.975 96.3624C147.366 93.7269 147.027 91.5816 145.959 89.7728C143.476 85.5703 137.752 84.3767 129.934 83.1495C126.03 82.5375 124.979 79.0464 123.714 73.3683C122.856 69.52 121.97 65.5418 118.935 63.7474C117.942 63.1626 116.808 62.8678 115.55 62.8678C114.623 62.8678 113.627 63.0265 112.565 63.3453C109.381 64.297 107.084 64.8513 105.16 64.8513C100.831 64.8513 98.3848 62.0475 91.9518 54.6744C89.2223 51.5438 86.4769 49.8568 83.7617 49.6389C84.8281 47.5849 87.0626 44.2877 90.4414 44.2877C92.4102 44.2877 94.7672 45.4076 97.5047 48.5462C104.251 56.2814 107.137 59.5049 112.352 59.5049C114.526 59.5049 117.105 58.9442 120.534 57.9172C121.408 57.656 122.175 57.5359 122.853 57.5359C128.065 57.5359 128.008 64.6991 129.832 70.5309C129.745 71.2487 129.856 71.9985 130.193 72.6954L134.397 81.3935C134.847 82.326 135.632 83.0261 136.606 83.3658C137.018 83.5084 137.443 83.5805 137.866 83.5805C138.444 83.5805 139.017 83.4475 139.552 83.1863C140.478 82.7329 141.173 81.9431 141.509 80.9625C141.775 80.1887 141.793 79.3716 141.565 78.601C149.258 80.1246 153.317 82.3388 151.776 89.3947C150.64 89.7968 149.706 90.7277 149.348 91.9789C149.137 92.7047 149.144 93.4593 149.354 94.1675C148.615 94.9621 147.821 95.6927 146.975 96.3624" fill="#D32B9A"/>
<path d="M137.867 83.5795C137.442 83.5795 137.017 83.5092 136.605 83.3657C135.631 83.0268 134.847 82.3275 134.396 81.3946L130.192 72.6965C129.855 71.9987 129.745 71.2491 129.833 70.5315C130.944 74.0843 132.754 77.1455 136.878 77.7929C138.56 78.057 140.125 78.3166 141.564 78.6021C141.792 79.3716 141.773 80.19 141.508 80.9641C141.173 81.9443 140.478 82.7336 139.55 83.1871C139.016 83.4482 138.443 83.5795 137.867 83.5795" fill="#B42583"/>
<path d="M149.355 94.1672C149.144 93.4604 149.138 92.7043 149.347 91.9783C149.706 90.7266 150.64 89.7974 151.776 89.3939C151.585 90.2676 151.309 91.2127 150.943 92.242C150.449 92.9203 149.919 93.562 149.355 94.1672Z" fill="#B42583"/>
<path d="M144.169 98.2535V98.252C144.25 97.9695 144.322 97.6933 144.386 97.4265C144.389 97.4092 144.393 97.3951 144.396 97.3794C144.457 97.1205 144.512 96.8663 144.557 96.6183C144.562 96.5979 144.566 96.5759 144.571 96.5555C144.615 96.3123 144.652 96.0769 144.683 95.8462C144.686 95.8227 144.69 95.7991 144.693 95.7756C144.707 95.6626 144.719 95.5496 144.732 95.4382C144.743 95.3283 144.752 95.22 144.76 95.1118C144.752 95.22 144.743 95.3283 144.732 95.4382C144.743 95.3283 144.752 95.22 144.76 95.1118C144.761 95.0866 144.763 95.0631 144.764 95.0396C144.778 94.8246 144.786 94.6159 144.788 94.4118C144.788 94.4087 144.788 94.4071 144.788 94.404C144.788 94.3852 144.788 94.3679 144.788 94.3491C144.786 94.2455 144.786 94.1451 144.782 94.0462C144.778 93.9458 144.774 93.8469 144.768 93.7496C144.764 93.7323 144.763 93.7151 144.761 93.6994C144.747 93.5079 144.727 93.3227 144.7 93.1423C144.699 93.136 144.697 93.1297 144.697 93.1234C144.694 93.114 144.693 93.103 144.691 93.0921C144.676 92.9963 144.66 92.9022 144.641 92.8096C144.623 92.7154 144.601 92.6244 144.579 92.5334V92.5302C144.393 91.7895 144.091 91.1382 143.676 90.5592C143.145 89.8169 142.429 89.1954 141.544 88.6634C141.481 88.6258 141.417 88.5881 141.352 88.552C141.252 88.4939 141.148 88.4374 141.043 88.3825C141.023 88.3715 141.003 88.3605 140.982 88.3496C140.861 88.2852 140.738 88.2256 140.61 88.1644C140.569 88.1456 140.529 88.1251 140.487 88.1063C140.452 88.0906 140.417 88.0734 140.379 88.0561C140.219 87.9823 140.052 87.9117 139.883 87.8411C139.834 87.8223 139.787 87.8019 139.737 87.7815C139.654 87.7501 139.572 87.7171 139.487 87.6842C139.403 87.6528 139.319 87.6214 139.233 87.59C139.174 87.568 139.113 87.5461 139.052 87.5257C138.886 87.466 138.714 87.408 138.541 87.3515C138.471 87.3295 138.401 87.306 138.329 87.284C138.158 87.2306 137.985 87.1773 137.808 87.1255C137.727 87.1035 137.648 87.0784 137.567 87.0564C137.481 87.0329 137.392 87.0078 137.303 86.9843C137.216 86.9591 137.126 86.9356 137.037 86.9121C136.948 86.8885 136.858 86.865 136.767 86.8414C136.589 86.7975 136.41 86.752 136.229 86.708C136.128 86.6845 136.027 86.661 135.924 86.6374C135.746 86.5966 135.565 86.5558 135.383 86.515C135.364 86.5103 135.344 86.5072 135.324 86.5025C135.23 86.4821 135.136 86.4617 135.041 86.4428C134.864 86.4052 134.684 86.3675 134.502 86.3298C134.376 86.3047 134.246 86.2796 134.118 86.2545C133.941 86.2184 133.763 86.1839 133.582 86.1509C133.514 86.1384 133.443 86.1243 133.373 86.1117C133.303 86.0991 133.231 86.0866 133.161 86.0725C132.987 86.0411 132.811 86.0081 132.631 85.9767C132.522 85.9563 132.411 85.9375 132.301 85.9187C132.246 85.9108 132.192 85.8998 132.139 85.892C131.973 85.8637 131.813 85.8355 131.644 85.8057C131.439 85.7727 131.228 85.7366 131.018 85.7021C130.888 85.6817 130.761 85.6597 130.63 85.6393C130.282 85.5828 129.931 85.5263 129.574 85.4714C118.677 83.7609 123.937 65.2131 115.547 65.2131C114.87 65.2131 114.102 65.3339 113.23 65.596C109.798 66.6223 107.222 67.1826 105.048 67.1826C99.8345 67.1826 96.9458 63.9592 90.1988 56.224C90.1863 56.2099 90.1754 56.1957 90.1629 56.1832C89.9151 55.9007 89.6719 55.6402 89.4302 55.3907C89.3772 55.3358 89.3242 55.2793 89.2728 55.2259C89.0296 54.9795 88.7895 54.7488 88.5526 54.5338C88.5074 54.493 88.4606 54.4522 88.4138 54.4114C88.3078 54.3173 88.2003 54.2247 88.0958 54.1368C87.9898 54.0473 87.8853 53.9626 87.7809 53.8794C87.7435 53.8496 87.7045 53.8167 87.6655 53.7868C87.5548 53.7005 87.4426 53.6189 87.3335 53.5389C87.2228 53.4604 87.1137 53.3851 87.0061 53.3113C86.9437 53.2705 86.883 53.2313 86.8222 53.1921C86.7177 53.1246 86.6117 53.0587 86.5072 52.9959C86.4028 52.9331 86.2983 52.8735 86.197 52.8186C86.1487 52.7935 86.1035 52.7731 86.0567 52.7479C85.971 52.704 85.8884 52.6616 85.8042 52.6224C85.7216 52.5832 85.6374 52.5455 85.5547 52.5094C85.4908 52.4812 85.4238 52.4513 85.3599 52.4262C85.2211 52.3697 85.0855 52.3211 84.9499 52.2756C84.9047 52.2615 84.8595 52.2473 84.8158 52.2332C84.7784 52.2222 84.741 52.2112 84.7051 52.2018C84.6677 52.1908 84.6319 52.1814 84.596 52.172C84.529 52.1532 84.4619 52.1375 84.3933 52.1202C84.3279 52.1061 84.2624 52.092 84.1954 52.0794C84.1018 52.0606 84.0067 52.0433 83.9132 52.0292C83.7854 52.0119 83.6575 51.9962 83.5328 51.9884C83.4518 51.9821 83.3707 51.9758 83.2896 51.9743C83.2569 51.9727 83.2257 51.9711 83.1945 51.9711C83.168 51.9711 83.1415 51.9711 83.115 51.9711C83.1135 51.9711 83.1119 51.9711 83.1103 51.9711C83.1088 51.9711 83.1072 51.9711 83.1057 51.9711C83.0636 51.9711 83.0215 51.9711 82.981 51.9727C82.9373 51.9743 82.8952 51.9758 82.8516 51.9774C82.9155 51.7232 82.9763 51.4658 83.0495 51.2131C83.101 51.075 83.338 50.4552 83.762 49.6391C86.4761 49.8573 89.2213 51.5443 91.951 54.6751C98.3847 62.0493 100.831 64.8521 105.158 64.8521C107.084 64.8521 109.38 64.2982 112.566 63.3456C113.626 63.027 114.623 62.8685 115.549 62.8685C116.808 62.8685 117.941 63.1635 118.933 63.7489C121.968 65.5426 122.855 69.5208 123.714 73.3688C124.978 79.0466 126.029 82.5384 129.933 83.1504C137.751 84.3776 143.477 85.5703 145.959 89.7729C147.026 91.5824 147.365 93.7276 146.975 96.3625C146.091 97.0609 145.154 97.6917 144.169 98.2535M144.386 97.4265C144.322 97.6933 144.25 97.9695 144.169 98.252C144.25 97.9695 144.322 97.6933 144.386 97.4265ZM144.557 96.6183C144.512 96.8663 144.457 97.1205 144.396 97.3794C144.457 97.1205 144.512 96.8663 144.557 96.6183ZM144.788 94.4118C144.786 94.6159 144.778 94.8246 144.764 95.0396C144.778 94.8246 144.786 94.6159 144.788 94.4118Z" fill="#6D184E"/>
<path d="M144.765 95.0399C144.779 94.8251 144.787 94.615 144.788 94.4125C144.787 94.615 144.779 94.8251 144.765 95.0399Z" fill="#6D184E"/>
<path d="M144.762 93.6987C144.746 93.5087 144.728 93.3233 144.7 93.1425C144.728 93.3233 144.746 93.5087 144.762 93.6987ZM144.7 93.1425C144.699 93.1363 144.697 93.1301 144.697 93.1239C144.697 93.1301 144.699 93.1363 144.7 93.1425Z" fill="#6D184E"/>
<path d="M144.693 95.7751C144.707 95.6624 144.721 95.5496 144.732 95.4383C144.721 95.5496 144.707 95.6624 144.693 95.7751ZM144.732 95.4383C144.742 95.3286 144.753 95.2189 144.761 95.1107C144.753 95.2189 144.742 95.3286 144.732 95.4383Z" fill="#6D184E"/>
<path d="M144.691 93.0912C144.676 92.997 144.659 92.9028 144.64 92.8086C144.659 92.9028 144.676 92.997 144.691 93.0912ZM144.64 92.8086C144.622 92.7159 144.602 92.6247 144.579 92.5336C144.602 92.6247 144.622 92.7159 144.64 92.8086Z" fill="#6D184E"/>
<path d="M140.38 88.0557C140.219 87.9829 140.052 87.9115 139.883 87.8417C140.052 87.9115 140.219 87.9829 140.38 88.0557Z" fill="#6D184E"/>
<path d="M141.545 88.6628C141.481 88.6246 141.419 88.588 141.354 88.5514C141.419 88.588 141.481 88.6246 141.545 88.6628ZM141.354 88.5514C141.253 88.4935 141.149 88.437 141.045 88.3821C141.149 88.437 141.253 88.4935 141.354 88.5514Z" fill="#6D184E"/>
<path d="M140.983 88.3488C140.862 88.2864 140.738 88.224 140.61 88.1646C140.738 88.224 140.862 88.2848 140.983 88.3488ZM140.61 88.1646C140.57 88.1448 140.53 88.125 140.487 88.1068C140.53 88.125 140.57 88.1448 140.61 88.1646Z" fill="#6D184E"/>
<path d="M144.17 98.2521C144.251 97.9683 144.322 97.6936 144.386 97.4252C144.322 97.6936 144.251 97.9683 144.17 98.2521Z" fill="#6D184E"/>
<path d="M144.571 96.5551C144.616 96.3125 144.653 96.0778 144.683 95.8476C144.653 96.0762 144.616 96.3125 144.571 96.5551Z" fill="#6D184E"/>
<path d="M144.396 97.3807C144.458 97.1198 144.512 96.8666 144.558 96.6181C144.512 96.8666 144.458 97.1198 144.396 97.3807Z" fill="#6D184E"/>
<path d="M85.5572 52.5088C85.4909 52.4808 85.4245 52.4514 85.3613 52.425C85.4245 52.4514 85.4909 52.4808 85.5572 52.5088Z" fill="#6D184E"/>
<path d="M84.1977 52.0781C84.1019 52.0594 84.0077 52.0423 83.915 52.0283C84.0077 52.0423 84.1019 52.0594 84.1977 52.0781Z" fill="#6D184E"/>
<path d="M84.8164 52.233C84.7794 52.2221 84.7423 52.2112 84.7053 52.2003C84.7423 52.2112 84.7794 52.2221 84.8164 52.233ZM84.7053 52.2003C84.6698 52.191 84.6327 52.1801 84.5957 52.1708C84.6327 52.1801 84.6698 52.191 84.7053 52.2003Z" fill="#6D184E"/>
<path d="M87.0056 53.3114C86.9457 53.2712 86.8842 53.2309 86.8242 53.1922C86.8842 53.2309 86.9457 53.2712 87.0056 53.3114Z" fill="#6D184E"/>
<path d="M86.1978 52.8168C86.15 52.792 86.1038 52.7718 86.0576 52.747C86.1038 52.7718 86.15 52.792 86.1978 52.8168Z" fill="#6D184E"/>
<path d="M139.737 87.7827C139.656 87.7494 139.572 87.7161 139.488 87.6843C139.572 87.7161 139.656 87.7494 139.737 87.7827ZM139.488 87.6843C139.403 87.6525 139.319 87.6207 139.233 87.5904C139.319 87.6207 139.403 87.6525 139.488 87.6843Z" fill="#6D184E"/>
<path d="M87.782 53.8789C87.7437 53.8496 87.7053 53.8156 87.667 53.7863C87.7053 53.8156 87.7437 53.8496 87.782 53.8789Z" fill="#6D184E"/>
<path d="M144.579 92.5306C144.395 91.7895 144.091 91.1379 143.677 90.5605C144.091 91.1379 144.395 91.7895 144.579 92.5306ZM143.677 90.5605C143.145 89.8163 142.43 89.1956 141.545 88.6629C142.43 89.1956 143.145 89.8163 143.677 90.5605Z" fill="#6D184E"/>
<path d="M89.431 55.3896C89.3777 55.3343 89.3258 55.2791 89.2725 55.2253C89.3258 55.2791 89.3777 55.3343 89.431 55.3896Z" fill="#6D184E"/>
<path d="M83.5341 51.9873C83.4522 51.9811 83.3704 51.9749 83.29 51.9733C83.3704 51.9749 83.4522 51.9811 83.5341 51.9873Z" fill="#6D184E"/>
<path d="M144.789 94.3491C144.787 94.2456 144.787 94.1451 144.782 94.0447C144.787 94.1451 144.787 94.2456 144.789 94.3491ZM144.782 94.0447C144.779 93.9458 144.773 93.8469 144.767 93.7495C144.774 93.8469 144.779 93.9458 144.782 94.0447Z" fill="#6D184E"/>
<path d="M135.925 86.6377C135.746 86.596 135.566 86.5557 135.383 86.514C135.566 86.5557 135.746 86.596 135.925 86.6377Z" fill="#6D184E"/>
<path d="M136.767 86.8416C136.589 86.7967 136.411 86.7518 136.229 86.7084C136.411 86.7518 136.589 86.7967 136.767 86.8416Z" fill="#6D184E"/>
<path d="M88.5533 54.5327C88.5074 54.4911 88.4615 54.4511 88.4141 54.411C88.4615 54.4511 88.5074 54.4911 88.5533 54.5327Z" fill="#6D184E"/>
<path d="M138.33 87.2825C138.16 87.2298 137.986 87.1772 137.81 87.1245C137.986 87.1772 138.16 87.2298 138.33 87.2825Z" fill="#6D184E"/>
<path d="M139.053 87.5243C138.887 87.4639 138.716 87.4065 138.542 87.3507C138.716 87.4065 138.887 87.4639 139.053 87.5243Z" fill="#6D184E"/>
<path d="M137.568 87.0567C137.481 87.0327 137.393 87.0072 137.304 86.9832C137.393 87.0072 137.481 87.0327 137.568 87.0567ZM137.304 86.9832C137.216 86.9592 137.127 86.9352 137.037 86.9126C137.127 86.9352 137.216 86.9592 137.304 86.9832Z" fill="#6D184E"/>
<path d="M135.044 86.4415C134.865 86.4043 134.687 86.3657 134.504 86.3286C134.687 86.3657 134.865 86.4043 135.044 86.4415Z" fill="#6D184E"/>
<path d="M132.14 85.8906C131.975 85.8627 131.813 85.8349 131.646 85.8055C131.813 85.8349 131.975 85.8627 132.14 85.8906Z" fill="#6D184E"/>
<path d="M131.019 85.7027C130.888 85.6808 130.76 85.6604 130.63 85.6385C130.76 85.6604 130.888 85.6808 131.019 85.7027Z" fill="#6D184E"/>
<path d="M133.162 86.0728C132.987 86.0418 132.811 86.0079 132.631 85.977C132.811 86.0079 132.987 86.0418 133.162 86.0728Z" fill="#6D184E"/>
<path d="M134.118 86.2538C133.941 86.2198 133.763 86.1843 133.582 86.1503C133.763 86.1843 133.941 86.2198 134.118 86.2538Z" fill="#6D184E"/>
<path d="M111.314 201.13C110.952 201.13 110.571 201.108 110.172 201.064C108.902 200.925 107.742 200.682 106.684 200.331C110.548 200.021 114.861 197.701 114.681 188.813C114.368 173.521 105.43 150.344 132.459 150.344C133.574 150.344 134.751 150.383 135.992 150.464C136.063 150.468 136.276 150.48 136.312 150.483L136.311 150.485C145.991 151.1 149.972 153.709 154.421 153.709C156.268 153.709 158.195 153.26 160.644 152.03C159.891 152.593 159.119 153.168 158.321 153.756C152.901 157.752 149.567 158.996 146.452 158.996C144.437 158.996 142.515 158.475 140.182 157.845C137.001 156.985 133.042 155.914 127.459 155.732C127.346 155.729 127.233 155.727 127.12 155.727C124.936 155.727 123.105 156.453 121.673 157.883C117.752 161.796 117.955 170.179 118.168 179.053C118.366 187.278 118.591 196.6 115.089 199.84C114.153 200.705 112.912 201.13 111.314 201.13M177.735 139.935C183.506 135.669 187.859 132.84 191.517 132.37C190.977 135.599 190.282 137.958 189.553 138.666C188.148 137.938 186.733 137.599 185.261 137.599C182.94 137.599 180.482 138.443 177.735 139.935Z" fill="#D32B9A"/>
<path d="M110.946 203.232C105.307 203.232 100.807 199.545 100.807 199.545C100.807 199.545 103.036 200.37 105.709 200.37C106.029 200.37 106.356 200.358 106.683 200.331C107.742 200.681 108.904 200.925 110.173 201.064C110.572 201.108 110.954 201.129 111.315 201.129C112.913 201.129 114.154 200.704 115.089 199.839C118.591 196.6 118.367 187.278 118.168 179.052C117.955 170.178 117.753 161.796 121.674 157.883C123.106 156.453 124.937 155.727 127.12 155.727C127.234 155.727 127.346 155.729 127.46 155.732C133.044 155.914 137.003 156.984 140.183 157.844C142.517 158.475 144.439 158.995 146.452 158.995C149.568 158.995 152.903 157.752 158.321 153.756C159.118 153.168 159.891 152.593 160.644 152.03C162.431 151.134 164.493 149.823 167.003 147.971C171.074 144.97 174.613 142.242 177.736 139.935C180.483 138.442 182.94 137.598 185.261 137.598C186.734 137.598 188.149 137.938 189.554 138.666C190.283 137.958 190.979 135.598 191.517 132.37C191.875 132.323 192.226 132.3 192.571 132.3C193.017 132.3 193.452 132.339 193.88 132.419C193.14 137.042 191.857 141.082 189.633 141.081C189.29 141.081 188.924 140.985 188.535 140.779C187.494 140.231 186.414 139.973 185.268 139.973C179.484 139.973 172.029 146.556 159.7 155.649C153.768 160.025 149.946 161.363 146.469 161.363C141.428 161.363 137.109 158.551 128.128 158.114C128.128 158.114 127.687 157.879 127.034 157.879C125.554 157.879 122.983 159.089 121.96 166.99C120.486 178.381 123.541 198.859 115.853 202.215C114.176 202.946 112.518 203.232 110.946 203.232" fill="#6D184E"/>
<path d="M52.2799 47.1233C50.7435 47.3787 49.7038 48.8397 49.9582 50.3864L51.5278 59.9297C51.7823 61.4764 53.2333 62.5218 54.7697 62.2664C56.3077 62.011 57.3462 60.5484 57.0909 59.0017L55.523 49.4599C55.2693 47.9117 53.8163 46.8663 52.2799 47.1233" fill="#0DF4FF"/>
<path d="M52.7412 48.128C52.6454 48.128 52.5478 48.1359 52.4492 48.1519C51.9796 48.2299 51.5683 48.488 51.291 48.8784C51.0139 49.2671 50.9034 49.7435 50.9812 50.2151L52.5508 59.7585C52.7107 60.7351 53.6297 61.3947 54.6015 61.237C55.0715 61.1589 55.483 60.9008 55.76 60.5105C56.0369 60.1202 56.1462 59.6454 56.0686 59.1722L54.5002 49.6288C54.3562 48.7525 53.598 48.128 52.7412 48.128V48.128ZM54.3071 63.348C52.456 63.348 50.8175 61.997 50.5047 60.0994L48.9352 50.556C48.7676 49.5332 49.0053 48.5055 49.6051 47.6627C50.2048 46.8199 51.0947 46.2623 52.1108 46.0918C54.2105 45.7429 56.1984 47.1768 56.5466 49.2878L58.115 58.8312C58.2828 59.8557 58.0454 60.8817 57.4455 61.7261C56.8457 62.5689 55.9562 63.125 54.9402 63.2954C54.7281 63.3305 54.516 63.348 54.3071 63.348" fill="#6D184E"/>
<path d="M87.0073 29.3986C85.9295 30.5312 85.9684 32.3288 87.0935 33.4122L94.0353 40.101C95.1605 41.1843 96.9445 41.1452 98.0224 40.0125C99.0985 38.8799 99.0597 37.0822 97.9345 35.9989L90.9927 29.3118C89.8692 28.2268 88.0835 28.2659 87.0073 29.3986" fill="#0DF4FF"/>
<path d="M87.7564 30.1209C87.0771 30.8354 87.1008 31.9729 87.8123 32.6584L94.7528 39.3467C95.4626 40.0305 96.5942 40.0049 97.2735 39.2904C97.6038 38.9442 97.78 38.4906 97.7681 38.0097C97.758 37.5322 97.5615 37.0854 97.2193 36.7529L90.2771 30.0646C89.9332 29.7338 89.4708 29.5479 89.0049 29.5666C88.5289 29.5769 88.0851 29.773 87.7564 30.1209V30.1209ZM95.9843 41.9302C95.0255 41.9302 94.065 41.5738 93.3196 40.8542L86.3775 34.1659C84.841 32.6857 84.7885 30.2232 86.2572 28.6765C86.9704 27.9278 87.9292 27.5032 88.9592 27.4793C89.9824 27.4708 90.9666 27.8391 91.712 28.5571L98.6524 35.2454C99.3978 35.9616 99.8196 36.9285 99.8416 37.9654C99.8636 39.0022 99.4842 39.9862 98.771 40.7348C98.0155 41.5295 97.0007 41.9302 95.9843 41.9302" fill="#6D184E"/>
<path d="M133.412 65.9629C132.013 66.6492 131.429 68.3473 132.111 69.7566L136.316 78.4553C136.996 79.8646 138.683 80.4515 140.084 79.7667C141.486 79.0804 142.067 77.3808 141.387 75.9715L137.183 67.2728C136.501 65.8635 134.814 65.2766 133.412 65.9629Z" fill="#0DF4FF"/>
<path d="M133.413 65.9619H133.418H133.413ZM134.646 66.7191C134.379 66.7191 134.113 66.7805 133.866 66.9003V66.9018C133.437 67.1107 133.117 67.4762 132.96 67.9278C132.806 68.3823 132.835 68.8692 133.042 69.2992L137.247 77.998C137.677 78.8887 138.747 79.2604 139.63 78.8273C140.515 78.3942 140.884 77.3176 140.454 76.4268L136.249 67.7296C136.042 67.2981 135.679 66.9756 135.229 66.8189C135.038 66.7513 134.841 66.7191 134.646 66.7191ZM138.857 81.0941C137.425 81.0941 136.049 80.2909 135.383 78.9118L131.178 70.213C130.728 69.2808 130.665 68.2272 131.001 67.2474C131.338 66.2676 132.034 65.4782 132.96 65.0236C133.886 64.5705 134.931 64.506 135.906 64.8454C136.879 65.1833 137.663 65.8836 138.114 66.8174L142.318 75.5146C143.249 77.4389 142.449 79.7672 140.538 80.704C139.996 80.9697 139.423 81.0941 138.857 81.0941Z" fill="#6D184E"/>
<path d="M74.469 97.6963C72.9183 97.5548 71.5475 98.7051 71.4069 100.267L70.539 109.9C70.3984 111.461 71.5412 112.843 73.0919 112.984C74.6439 113.126 76.0159 111.975 76.1553 110.413L77.0231 100.78C77.165 99.2191 76.021 97.8379 74.469 97.6963" fill="#0DF4FF"/>
<path d="M74.2117 98.7285C73.7953 98.7285 73.3967 98.8733 73.0732 99.1438C72.7077 99.4515 72.4823 99.8836 72.4389 100.36L71.5717 109.995C71.5284 110.472 71.6723 110.939 71.9779 111.306C72.2823 111.674 72.7115 111.901 73.1865 111.944C74.1633 112.04 75.0344 111.304 75.1236 110.318L75.9909 100.686C76.0342 100.208 75.8903 99.7426 75.5846 99.3733C75.279 99.0054 74.8498 98.7785 74.376 98.7362C74.3213 98.7297 74.2665 98.7285 74.2117 98.7285V98.7285ZM73.3495 114.04C73.2349 114.04 73.1165 114.035 72.998 114.023C71.9728 113.93 71.0444 113.44 70.386 112.644C69.725 111.846 69.4143 110.839 69.506 109.807L70.3745 100.173C70.5656 98.0413 72.4466 96.467 74.5632 96.6567C75.5897 96.7516 76.5181 97.24 77.1778 98.0374C77.8375 98.8336 78.1495 99.8413 78.0566 100.875L77.188 110.507C77.0072 112.521 75.321 114.04 73.3495 114.04" fill="#6D184E"/>
<path d="M57.2055 84.5315C56.3752 83.2052 54.6357 82.805 53.3169 83.6396L45.1815 88.7875C43.8627 89.622 43.4665 91.373 44.2955 92.7006C45.1232 94.0282 46.8653 94.4284 48.1828 93.5939L56.3182 88.4474C57.637 87.6115 58.0345 85.8591 57.2055 84.5315Z" fill="#FFD00D"/>
<path d="M54.8147 84.2492C54.4901 84.2492 54.1627 84.337 53.8681 84.5224L45.7329 89.6703C45.3305 89.9243 45.0495 90.3225 44.9445 90.7908C44.8381 91.259 44.9199 91.7396 45.1736 92.1461C45.6961 92.9823 46.7996 93.2364 47.6316 92.7104L55.7668 87.5625C56.5989 87.0353 56.8499 85.9244 56.3274 85.0868C55.9891 84.5458 55.4081 84.2492 54.8147 84.2492ZM46.6891 95.0709C45.4055 95.0709 44.1492 94.4282 43.4167 93.2556C42.8684 92.3781 42.6938 91.3387 42.9216 90.3267C43.1521 89.3147 43.7578 88.4537 44.6307 87.9031L52.7659 82.7566C54.5664 81.6169 56.9508 82.1647 58.083 83.9759C59.2137 85.7884 58.6709 88.1901 56.8703 89.3284L48.7352 94.4777C48.0995 94.88 47.3902 95.0709 46.6891 95.0709Z" fill="#6D184E"/>
<path d="M129.785 136.897C128.957 135.57 127.217 135.171 125.897 136.005L117.762 141.152C116.444 141.987 116.046 143.738 116.876 145.066C117.704 146.394 119.445 146.793 120.764 145.96L128.898 140.811C130.217 139.977 130.614 138.225 129.785 136.897" fill="#0DF4FF"/>
<path d="M127.392 136.612C127.061 136.612 126.736 136.707 126.448 136.889L118.313 142.036C117.909 142.291 117.63 142.689 117.522 143.156C117.418 143.625 117.498 144.104 117.752 144.51C118.005 144.916 118.401 145.2 118.866 145.306C119.328 145.413 119.806 145.331 120.21 145.076L128.346 139.929C129.178 139.402 129.43 138.291 128.907 137.453C128.653 137.047 128.258 136.764 127.793 136.659C127.66 136.628 127.526 136.612 127.392 136.612V136.612ZM119.269 147.439C118.981 147.439 118.692 147.408 118.404 147.341C117.4 147.111 116.544 146.5 115.997 145.622C115.448 144.745 115.272 143.704 115.501 142.692C115.731 141.681 116.338 140.82 117.209 140.269L125.345 135.122C126.217 134.568 127.25 134.393 128.254 134.624C129.26 134.854 130.114 135.465 130.663 136.343C131.793 138.155 131.249 140.556 129.449 141.696L121.313 146.843C120.692 147.237 119.986 147.439 119.269 147.439Z" fill="#6D184E"/>
<path d="M142.475 109.203C141.026 109.776 140.314 111.425 140.885 112.884L144.406 121.885C144.977 123.344 146.614 124.059 148.063 123.486C149.512 122.911 150.224 121.263 149.654 119.804L146.132 110.804C145.562 109.345 143.924 108.629 142.475 109.203Z" fill="#FFD00D"/>
<path d="M142.855 110.174C142.413 110.35 142.064 110.689 141.874 111.129C141.683 111.567 141.675 112.055 141.85 112.502L145.371 121.502C145.731 122.423 146.769 122.876 147.683 122.514C148.127 122.338 148.476 121.999 148.665 121.56C148.855 121.12 148.865 120.632 148.69 120.186L145.168 111.186C144.993 110.739 144.657 110.388 144.221 110.198C143.783 110.006 143.299 109.997 142.855 110.174ZM147.035 124.726C145.497 124.726 144.04 123.793 143.442 122.267L139.921 113.267C139.141 111.275 140.116 109.016 142.095 108.231C143.053 107.851 144.103 107.87 145.047 108.283C145.992 108.698 146.721 109.456 147.098 110.421L150.619 119.421C150.996 120.385 150.977 121.441 150.567 122.392C150.156 123.343 149.403 124.077 148.445 124.457C147.982 124.639 147.504 124.726 147.035 124.726" fill="#6D184E"/>
<path d="M116.579 42.4333C116.147 43.9409 117.009 45.5137 118.505 45.9484L127.739 48.6331C129.233 49.0694 130.797 48.2017 131.229 46.694C131.661 45.1881 130.799 43.6137 129.303 43.179L120.071 40.4943C118.575 40.0596 117.011 40.9273 116.579 42.4333Z" fill="#FFD00D"/>
<path d="M117.574 42.7253C117.302 43.6753 117.847 44.6728 118.793 44.9475L128.024 47.6309C128.968 47.9073 129.959 47.3562 130.233 46.4061C130.363 45.945 130.311 45.4593 130.08 45.0407C129.85 44.6205 129.471 44.3163 129.015 44.1823L119.782 41.4989C118.838 41.2242 117.847 41.7736 117.574 42.7253ZM128.518 49.7894C128.164 49.7894 127.805 49.7403 127.449 49.6373L118.218 46.9523C116.174 46.3587 114.992 44.2019 115.581 42.1464C116.173 40.0893 118.315 38.9006 120.357 39.4925L129.59 42.1775C130.579 42.4653 131.398 43.1226 131.897 44.0318C132.394 44.9394 132.511 45.9875 132.225 46.985C131.737 48.684 130.191 49.7894 128.518 49.7894" fill="#6D184E"/>
<path d="M151.329 89.7851C150.897 91.2927 151.759 92.8657 153.255 93.3005L162.486 95.985C163.982 96.4198 165.546 95.5519 165.978 94.046C166.41 92.54 165.548 90.967 164.052 90.5305L154.821 87.846C153.324 87.4112 151.761 88.2791 151.329 89.7851Z" fill="#0DF4FF"/>
<path d="M152.326 90.0746C152.053 91.0255 152.599 92.0236 153.544 92.2984L162.775 94.9825C163.72 95.259 164.71 94.706 164.983 93.7551C165.256 92.8059 164.71 91.8078 163.765 91.533L154.534 88.8489C153.591 88.5741 152.599 89.1237 152.326 90.0746V90.0746ZM163.268 97.1405C162.914 97.1405 162.556 97.0916 162.199 96.9888L152.968 94.303C150.925 93.7096 149.744 91.5515 150.333 89.4963C150.925 87.4394 153.067 86.2525 155.108 86.8426L164.34 89.5267C166.383 90.1218 167.565 92.2799 166.976 94.335C166.489 96.0328 164.943 97.1405 163.268 97.1405" fill="#6D184E"/>
<path d="M169.51 136.542C170.567 137.693 172.35 137.763 173.495 136.699L180.55 130.132C181.694 129.067 181.762 127.272 180.705 126.119C179.648 124.968 177.863 124.899 176.72 125.963L169.665 132.531C168.523 133.596 168.453 135.391 169.51 136.542Z" fill="#FFD52B"/>
<path d="M178.633 126.252C178.184 126.252 177.757 126.419 177.425 126.729L170.37 133.296C169.648 133.968 169.604 135.106 170.273 135.833C170.94 136.56 172.07 136.605 172.792 135.933L179.846 129.366C180.568 128.693 180.612 127.555 179.945 126.829C179.622 126.476 179.181 126.271 178.705 126.254C178.681 126.252 178.658 126.252 178.633 126.252ZM171.582 138.495C170.543 138.495 169.509 138.077 168.75 137.25C167.306 135.68 167.402 133.218 168.962 131.764L176.017 125.196C176.774 124.492 177.755 124.126 178.785 124.168C179.816 124.209 180.768 124.649 181.467 125.411C182.91 126.984 182.815 129.444 181.254 130.898L174.2 137.465C173.459 138.154 172.519 138.495 171.582 138.495Z" fill="#6D184E"/>
<path d="M150.606 69.6726C150.828 71.2244 152.256 72.3036 153.797 72.0807L163.31 70.7099C164.849 70.487 165.922 69.0475 165.7 67.4973C165.479 65.9439 164.05 64.8663 162.509 65.0892L152.997 66.46C151.455 66.6829 150.385 68.1207 150.606 69.6726Z" fill="#FFD52B"/>
<path d="M162.913 66.1032C162.828 66.1032 162.742 66.1099 162.655 66.1234L153.145 67.4948C152.17 67.6344 151.493 68.5464 151.632 69.5257C151.7 70.0002 151.946 70.4192 152.327 70.7069C152.708 70.9947 153.178 71.1158 153.649 71.0468L163.162 69.6755C164.135 69.5358 164.813 68.6238 164.675 67.6445C164.606 67.17 164.36 66.751 163.978 66.4616C163.667 66.2277 163.296 66.1032 162.913 66.1032V66.1032ZM153.389 73.1535C152.561 73.1535 151.757 72.886 151.084 72.3778C150.259 71.7552 149.725 70.8483 149.579 69.8202C149.278 67.7034 150.744 65.7313 152.85 65.4268L162.361 64.0554C163.381 63.9107 164.397 64.1698 165.221 64.7924C166.045 65.415 166.58 66.3219 166.726 67.3484C167.028 69.4668 165.56 71.4389 163.456 71.7418L153.944 73.1131C153.758 73.1401 153.572 73.1535 153.389 73.1535" fill="#6D184E"/>
<path d="M88.8368 124.002C89.919 125.129 91.7049 125.159 92.8251 124.07L99.7307 117.344C100.851 116.254 100.881 114.458 99.7978 113.33C98.7156 112.204 96.9297 112.173 95.8109 113.264L88.9026 119.988C87.785 121.078 87.7534 122.875 88.8368 124.002Z" fill="#FFD52B"/>
<path d="M89.5822 123.278C90.2657 123.989 91.3971 124.007 92.1035 123.319L99.0104 116.595C99.7167 115.907 99.7358 114.768 99.0536 114.057C98.7215 113.712 98.2773 113.518 97.8 113.509C97.319 113.488 96.8735 113.68 96.5312 114.014L89.6243 120.738C88.9166 121.428 88.8975 122.565 89.5822 123.278V123.278ZM90.8651 125.912C90.8435 125.912 90.8219 125.911 90.799 125.911C89.7693 125.894 88.8072 125.474 88.0907 124.728C86.6131 123.189 86.6538 120.726 88.1836 119.238L95.0892 112.513C95.8299 111.793 96.7984 111.388 97.8357 111.423C98.8653 111.44 99.8275 111.86 100.544 112.606C102.022 114.146 101.98 116.607 100.452 118.095L93.5442 124.819C92.82 125.525 91.8718 125.912 90.8651 125.912" fill="#6D184E"/>
<path d="M65.7385 34.809C67.0151 33.9096 67.3248 32.1387 66.4311 30.8559L60.9205 22.9324C60.0267 21.6479 58.2688 21.3359 56.9923 22.2352C55.7167 23.1346 55.407 24.9037 56.3007 26.1883L61.8113 34.1118C62.7051 35.3963 64.463 35.7083 65.7385 34.809Z" fill="#FFD52B"/>
<path d="M58.6065 22.7648C58.2445 22.7648 57.8912 22.8749 57.5884 23.0899C57.1977 23.3643 56.9373 23.7768 56.8543 24.2487C56.7715 24.7205 56.8771 25.1977 57.1495 25.5892L62.6609 33.5135C62.9342 33.905 63.3427 34.1671 63.8122 34.251C64.2818 34.3349 64.7542 34.2283 65.144 33.9539H65.1451C65.5347 33.6795 65.7951 33.267 65.8779 32.7951C65.9609 32.3232 65.8553 31.8461 65.5829 31.4546L60.0714 23.5303C59.7982 23.1371 59.3888 22.8749 58.9202 22.7928C58.8155 22.7736 58.711 22.7648 58.6065 22.7648V22.7648ZM64.1299 36.3658C63.9049 36.3658 63.678 36.3483 63.4521 36.3064C62.438 36.1264 61.5541 35.5601 60.9623 34.7107L55.4517 26.7864C54.8607 25.937 54.6338 24.9076 54.8124 23.8851C54.9909 22.8644 55.5541 21.9731 56.3986 21.3806C57.2422 20.7846 58.2662 20.5557 59.2803 20.7357C60.2944 20.9175 61.1782 21.4837 61.7692 22.3331L67.2807 30.2574C67.8717 31.1068 68.0986 32.1362 67.92 33.1587C67.7415 34.1794 67.1781 35.069 66.3336 35.6632C65.6777 36.1246 64.9142 36.3658 64.1299 36.3658" fill="#6D184E"/>
<path d="M99.272 257.705C48.7369 257.705 7.77051 252.89 7.77051 246.95C7.77051 241.011 48.7369 236.195 99.272 236.195C149.806 236.195 190.772 241.011 190.772 246.95C190.772 252.89 149.806 257.705 99.272 257.705Z" fill="#F2A40C"/>
</svg>
